<?xml version="1.0" standalone="no"?>
<!DOCTYPE svg PUBLIC "-//W3C//DTD SVG 20010904//EN"
 "http://www.w3.org/TR/2001/REC-SVG-20010904/DTD/svg10.dtd">
<svg version="1.0" xmlns="http://www.w3.org/2000/svg"
 width="400.000000pt" height="400.000000pt" viewBox="0 0 400.000000 400.000000"
 preserveAspectRatio="xMidYMid meet">
<metadata>
Created by potrace 1.11, written by Peter Selinger 2001-2013
</metadata>
<g transform="translate(0.000000,400.000000) scale(0.100000,-0.100000)"
fill="#000000" stroke="none">
<path d="M3177 3834 c-4 -4 -7 -36 -7 -71 l0 -64 -37 30 c-28 23 -40 28 -55
20 -29 -15 -22 -36 32 -93 69 -73 72 -113 10 -141 -58 -26 -79 -9 -108 89 -20
70 -24 76 -48 76 -26 0 -26 -1 -22 -50 3 -27 2 -50 -1 -50 -3 0 -24 12 -46 25
-46 29 -80 32 -89 9 -8 -22 6 -37 62 -70 l46 -27 -41 -18 c-50 -21 -60 -36
-40 -57 15 -14 23 -14 95 3 104 23 122 15 122 -56 0 -43 -3 -51 -26 -61 -20
-9 -40 -8 -100 7 -70 17 -76 17 -92 2 -15 -16 -15 -18 1 -34 10 -10 32 -23 49
-29 l31 -10 -45 -27 c-55 -32 -70 -50 -62 -71 9 -23 43 -20 89 9 22 13 43 25
46 25 3 0 4 -22 1 -48 -3 -37 -1 -50 10 -55 29 -11 48 17 68 101 16 68 45 91
91 72 75 -32 76 -61 4 -140 -56 -61 -64 -77 -44 -97 14 -14 56 4 80 33 12 15
15 10 19 -52 5 -66 6 -69 30 -69 24 0 25 3 30 69 4 62 7 67 19 52 24 -29 66
-47 80 -33 20 20 12 36 -44 97 -72 79 -71 108 4 140 46 19 75 -4 91 -72 20
-84 39 -112 68 -101 11 5 13 18 10 55 -3 26 -2 48 1 48 3 0 24 -12 46 -25 46
-29 80 -32 89 -9 8 22 -6 37 -62 70 l-46 27 31 11 c18 6 40 19 50 29 16 16 16
18 1 34 -16 15 -22 15 -92 -2 -60 -15 -80 -16 -100 -7 -23 10 -26 18 -26 61 0
71 18 79 122 56 72 -17 80 -17 95 -3 20 21 10 36 -40 57 l-41 18 46 27 c56 33
70 48 62 70 -9 23 -43 20 -89 -9 -22 -13 -43 -25 -46 -25 -3 0 -4 23 -1 50 4
48 4 50 -21 50 -27 0 -38 -19 -58 -103 -15 -63 -45 -85 -90 -67 -76 32 -76 61
-3 141 31 34 54 67 52 77 -5 27 -42 25 -76 -3 l-31 -26 -3 68 c-3 60 -5 68
-23 71 -12 2 -24 0 -28 -4z m64 -377 c29 -19 34 -29 37 -68 3 -43 1 -46 -38
-68 l-40 -22 -40 22 c-39 22 -41 25 -38 68 3 39 8 49 37 68 19 13 37 23 41 23
4 0 22 -10 41 -23z"/>
<path d="M1964 3791 c-47 -21 -133 -101 -500 -460 -594 -584 -905 -882 -1025
-983 -133 -113 -233 -214 -244 -248 -9 -27 14 -71 46 -89 64 -36 136 26 769
653 289 287 629 621 756 743 l231 222 64 -72 c68 -77 584 -610 970 -1002 130
-132 281 -294 336 -360 121 -145 230 -251 266 -261 33 -8 74 16 87 52 25 65
-30 129 -702 810 -310 313 -659 670 -777 792 -117 122 -219 222 -225 222 -6 0
-29 -9 -52 -19z"/>
<path d="M2289 2501 c-88 -8 -203 -58 -253 -110 l-29 -31 -23 34 c-70 103
-345 139 -500 67 -80 -38 -161 -117 -200 -198 -28 -56 -29 -64 -28 -193 1
-112 6 -152 28 -235 34 -129 99 -259 179 -360 72 -89 442 -447 488 -470 26
-14 32 -14 62 1 47 25 312 296 463 474 227 270 254 314 279 455 19 113 20 286
0 352 -31 105 -149 195 -274 208 -31 3 -69 7 -86 9 -16 2 -64 0 -106 -3z m268
-177 c15 -11 39 -41 53 -65 23 -41 25 -53 25 -179 0 -132 -1 -136 -33 -202
-47 -98 -137 -213 -275 -355 -156 -161 -357 -343 -379 -343 -24 0 -390 390
-448 477 -85 128 -140 286 -140 401 0 175 89 257 291 269 156 10 242 -34 304
-156 60 -120 83 -120 140 -5 48 98 57 108 111 140 57 33 111 43 226 41 80 -2
101 -5 125 -23z"/>
<path d="M578 1913 c-51 -55 -50 -40 -58 -672 -8 -634 -7 -646 39 -670 14 -8
422 -10 1415 -9 1232 3 1397 5 1410 18 9 9 21 40 27 70 13 64 30 1214 18 1246
-10 30 -35 36 -70 19 -60 -32 -59 -21 -69 -516 -5 -250 -14 -505 -21 -566
l-12 -113 -1282 0 c-1161 0 -1283 2 -1289 16 -3 9 -6 210 -7 447 0 238 -4 499
-7 580 -7 131 -10 151 -27 163 -27 20 -38 18 -67 -13z"/>
</g>
</svg>
